<svg id="visual" viewBox="0 0 900 600" width="900" height="600" xmlns="http://www.w3.org/2000/svg" xmlns:xlink="http://www.w3.org/1999/xlink" version="1.1"><path d="M0 49L13.7 58C27.3 67 54.7 85 82 89C109.3 93 136.7 83 163.8 73C191 63 218 53 245.2 63C272.3 73 299.7 103 327 110C354.3 117 381.7 101 409 90C436.3 79 463.7 73 491 79C518.3 85 545.7 103 573 113C600.3 123 627.7 125 654.8 125C682 125 709 123 736.2 110C763.3 97 790.7 73 818 64C845.3 55 872.7 61 886.3 64L900 67L900 0L886.3 0C872.7 0 845.3 0 818 0C790.7 0 763.3 0 736.2 0C709 0 682 0 654.8 0C627.7 0 600.3 0 573 0C545.7 0 518.3 0 491 0C463.7 0 436.3 0 409 0C381.7 0 354.3 0 327 0C299.7 0 272.3 0 245.2 0C218 0 191 0 163.8 0C136.7 0 109.3 0 82 0C54.7 0 27.3 0 13.7 0L0 0Z" fill="#201384"></path><path d="M0 145L13.7 144C27.3 143 54.7 141 82 136C109.3 131 136.7 123 163.8 123C191 123 218 131 245.2 142C272.3 153 299.7 167 327 168C354.3 169 381.7 157 409 144C436.3 131 463.7 117 491 121C518.3 125 545.7 147 573 161C600.3 175 627.7 181 654.8 179C682 177 709 167 736.2 150C763.3 133 790.7 109 818 103C845.3 97 872.7 109 886.3 115L900 121L900 65L886.3 62C872.7 59 845.3 53 818 62C790.7 71 763.3 95 736.2 108C709 121 682 123 654.8 123C627.7 123 600.3 121 573 111C545.7 101 518.3 83 491 77C463.7 71 436.3 77 409 88C381.7 99 354.3 115 327 108C299.7 101 272.3 71 245.2 61C218 51 191 61 163.8 71C136.7 81 109.3 91 82 87C54.7 83 27.3 65 13.7 56L0 47Z" fill="#140a69"></path><path d="M0 277L13.7 280C27.3 283 54.7 289 82 287C109.3 285 136.7 275 163.8 258C191 241 218 217 245.2 223C272.3 229 299.7 265 327 282C354.3 299 381.7 297 409 284C436.3 271 463.7 247 491 237C518.3 227 545.7 231 573 247C600.3 263 627.7 291 654.8 296C682 301 709 283 736.2 261C763.3 239 790.7 213 818 216C845.3 219 872.7 251 886.3 267L900 283L900 119L886.3 113C872.7 107 845.3 95 818 101C790.7 107 763.3 131 736.2 148C709 165 682 175 654.8 177C627.7 179 600.3 173 573 159C545.7 145 518.3 123 491 119C463.7 115 436.3 129 409 142C381.7 155 354.3 167 327 166C299.7 165 272.3 151 245.2 140C218 129 191 121 163.8 121C136.7 121 109.3 129 82 134C54.7 139 27.3 141 13.7 142L0 143Z" fill="#09024f"></path><path d="M0 409L13.7 412C27.3 415 54.7 421 82 428C109.3 435 136.7 443 163.8 434C191 425 218 399 245.2 400C272.3 401 299.7 429 327 450C354.3 471 381.7 485 409 471C436.3 457 463.7 415 491 412C518.3 409 545.7 445 573 462C600.3 479 627.7 477 654.8 456C682 435 709 395 736.2 382C763.3 369 790.7 383 818 408C845.3 433 872.7 469 886.3 487L900 505L900 281L886.3 265C872.7 249 845.3 217 818 214C790.7 211 763.3 237 736.2 259C709 281 682 299 654.8 294C627.7 289 600.3 261 573 245C545.7 229 518.3 225 491 235C463.7 245 436.3 269 409 282C381.7 295 354.3 297 327 280C299.7 263 272.3 227 245.2 221C218 215 191 239 163.8 256C136.7 273 109.3 283 82 285C54.7 287 27.3 281 13.7 278L0 275Z" fill="#060446"></path><path d="M0 601L13.7 601C27.3 601 54.7 601 82 601C109.3 601 136.7 601 163.8 601C191 601 218 601 245.2 601C272.3 601 299.7 601 327 601C354.3 601 381.7 601 409 601C436.3 601 463.7 601 491 601C518.3 601 545.7 601 573 601C600.3 601 627.7 601 654.8 601C682 601 709 601 736.2 601C763.3 601 790.7 601 818 601C845.3 601 872.7 601 886.3 601L900 601L900 503L886.3 485C872.7 467 845.3 431 818 406C790.7 381 763.3 367 736.2 380C709 393 682 433 654.8 454C627.7 475 600.3 477 573 460C545.7 443 518.3 407 491 410C463.7 413 436.3 455 409 469C381.7 483 354.3 469 327 448C299.7 427 272.3 399 245.2 398C218 397 191 423 163.8 432C136.7 441 109.3 433 82 426C54.7 419 27.3 413 13.7 410L0 407Z" fill="#07043c"></path></svg>